# Blender v2.83.5 OBJ File: ''
# www.blender.org
mtllib Sign Post.mtl
o Sign_post_Mesh.002
v 0.098829 -0.000447 0.000000
v 0.028513 -0.000447 -0.096781
v 0.028513 0.363367 -0.096781
v 0.098829 0.363367 0.000000
v -0.085261 -0.000447 -0.059814
v -0.085261 0.363367 -0.059814
v -0.085261 -0.000447 0.059814
v -0.085261 0.363367 0.059814
v 0.028513 -0.000447 0.096781
v 0.028513 0.363367 0.096781
v 0.028513 0.727181 -0.096781
v 0.098829 0.727181 0.000000
v -0.085261 0.727181 -0.059814
v -0.085261 0.727181 0.059814
v 0.028513 0.727181 0.096781
v 0.028513 1.090994 -0.096781
v 0.098829 1.090994 0.000000
v -0.085261 1.090994 -0.059814
v -0.085261 1.090994 0.059814
v 0.028513 1.090994 0.096781
v 0.028513 1.454809 -0.096781
v 0.098829 1.454809 0.000000
v -0.085261 1.454809 -0.059814
v -0.085261 1.454809 0.059814
v 0.028513 1.454809 0.096781
v 0.028513 1.818623 -0.096781
v 0.098829 1.818623 0.000000
v -0.085261 1.818623 -0.059814
v -0.085261 1.818623 0.059814
v 0.028513 1.818623 0.096781
v -0.587798 1.152200 0.191675
v 0.653101 1.152200 0.191675
v -0.587798 1.152200 0.038128
v 0.653101 1.152200 0.038128
v -0.587798 1.711769 0.191675
v 0.653101 1.711769 0.191675
v -0.587798 1.711769 0.038128
v 0.653101 1.711769 0.038128
v -0.563275 1.206271 0.191675
v 0.628578 1.206271 0.191675
v 0.628578 1.657698 0.191675
v -0.563275 1.657698 0.191675
vt 0.950000 0.000000
vt 0.750000 0.200000
vt 0.750000 0.000000
vt 1.150000 0.000000
vt 0.950000 0.200000
vt 0.350000 0.000000
vt 0.150000 0.200000
vt 0.150000 0.000000
vt 0.550000 0.000000
vt 0.350000 0.200000
vt 0.550000 0.200000
vt 0.750000 0.400000
vt 1.150000 0.200000
vt 0.950000 0.400000
vt 0.150000 0.400000
vt 0.350000 0.400000
vt 0.550000 0.400000
vt 0.750000 0.600000
vt 1.150000 0.400000
vt 0.950000 0.600000
vt 0.150000 0.600000
vt 0.350000 0.600000
vt 0.550000 0.600000
vt 0.750000 0.800000
vt 1.150000 0.600000
vt 0.950000 0.800000
vt 0.150000 0.800000
vt 0.350000 0.800000
vt 0.550000 0.800000
vt 0.750000 1.000000
vt 1.150000 0.800000
vt 0.950000 1.000000
vt 0.150000 1.000000
vt 0.350000 1.000000
vt 0.550000 1.000000
vt 0.793893 0.095492
vt 0.206107 0.095491
vt 0.024472 0.654508
vt 0.500000 1.000000
vt 0.206107 0.095491
vt 0.793893 0.095492
vt 1.000000 1.000000
vt 0.000000 0.000000
vt 1.000000 0.000000
vt 1.000000 0.000000
vt 0.000000 1.000000
vt 0.000000 0.000000
vt 1.000000 0.000000
vt 0.000000 1.000000
vt 1.000000 0.000000
vt 0.000000 1.000000
vt 0.000000 0.000000
vt 0.000000 0.000000
vt 1.000000 0.000000
vt 0.000000 0.000000
vt 0.000000 0.000000
vt 1.000000 1.000000
vt 1.000000 0.000000
vt 0.000000 1.000000
vt 1.000000 1.000000
vt 0.000000 1.000000
vt 1.150000 1.000000
vt 0.500000 1.000000
vt 0.975528 0.654509
vt 0.975528 0.654509
vt 0.024472 0.654508
vt 0.000000 1.000000
vt 1.000000 1.000000
vt 1.000000 1.000000
vt 1.000000 1.000000
vn 0.8090 0.0000 -0.5878
vn -0.3090 0.0000 -0.9511
vn -1.0000 0.0000 0.0000
vn -0.3090 0.0000 0.9511
vn 0.8090 0.0000 0.5878
vn 0.0000 -1.0000 0.0000
vn 0.0000 1.0000 0.0000
vn 1.0000 0.0000 0.0000
vn 0.0000 0.0000 -1.0000
vn 0.0000 0.0000 1.0000
usemtl Barrel_Wood
s 1
f 2/1/1 4/2/1 1/3/1
f 5/4/2 3/5/2 2/1/2
f 7/6/3 6/7/3 5/8/3
f 9/9/4 8/10/4 7/6/4
f 1/3/5 10/11/5 9/9/5
f 3/5/1 12/12/1 4/2/1
f 6/13/2 11/14/2 3/5/2
f 8/10/3 13/15/3 6/7/3
f 10/11/4 14/16/4 8/10/4
f 4/2/5 15/17/5 10/11/5
f 11/14/1 17/18/1 12/12/1
f 13/19/2 16/20/2 11/14/2
f 14/16/3 18/21/3 13/15/3
f 15/17/4 19/22/4 14/16/4
f 12/12/5 20/23/5 15/17/5
f 16/20/1 22/24/1 17/18/1
f 18/25/2 21/26/2 16/20/2
f 19/22/3 23/27/3 18/21/3
f 20/23/4 24/28/4 19/22/4
f 17/18/5 25/29/5 20/23/5
f 21/26/1 27/30/1 22/24/1
f 23/31/2 26/32/2 21/26/2
f 24/28/3 28/33/3 23/27/3
f 25/29/4 29/34/4 24/28/4
f 22/24/5 30/35/5 25/29/5
f 7/36/6 5/37/6 2/38/6
f 27/39/7 28/40/7 29/41/7
f 33/42/6 32/43/6 31/44/6
f 36/45/7 37/46/7 35/47/7
f 34/48/8 36/49/8 32/43/8
f 33/50/9 38/51/9 34/52/9
f 31/44/3 37/46/3 33/53/3
f 32/54/10 39/55/10 31/56/10
f 36/57/10 40/58/10 32/54/10
f 35/59/10 41/60/10 36/57/10
f 35/59/10 39/55/10 42/61/10
f 2/1/1 3/5/1 4/2/1
f 5/4/2 6/13/2 3/5/2
f 7/6/3 8/10/3 6/7/3
f 9/9/4 10/11/4 8/10/4
f 1/3/5 4/2/5 10/11/5
f 3/5/1 11/14/1 12/12/1
f 6/13/2 13/19/2 11/14/2
f 8/10/3 14/16/3 13/15/3
f 10/11/4 15/17/4 14/16/4
f 4/2/5 12/12/5 15/17/5
f 11/14/1 16/20/1 17/18/1
f 13/19/2 18/25/2 16/20/2
f 14/16/3 19/22/3 18/21/3
f 15/17/4 20/23/4 19/22/4
f 12/12/5 17/18/5 20/23/5
f 16/20/1 21/26/1 22/24/1
f 18/25/2 23/31/2 21/26/2
f 19/22/3 24/28/3 23/27/3
f 20/23/4 25/29/4 24/28/4
f 17/18/5 22/24/5 25/29/5
f 21/26/1 26/32/1 27/30/1
f 23/31/2 28/62/2 26/32/2
f 24/28/3 29/34/3 28/33/3
f 25/29/4 30/35/4 29/34/4
f 22/24/5 27/30/5 30/35/5
f 2/38/6 1/63/6 9/64/6
f 9/64/6 7/36/6 2/38/6
f 29/41/7 30/65/7 27/39/7
f 27/39/7 26/66/7 28/40/7
f 33/42/6 34/67/6 32/43/6
f 36/45/7 38/68/7 37/46/7
f 34/48/8 38/68/8 36/49/8
f 33/50/9 37/69/9 38/51/9
f 31/44/3 35/70/3 37/46/3
f 32/54/10 40/58/10 39/55/10
f 36/57/10 41/60/10 40/58/10
f 35/59/10 42/61/10 41/60/10
f 35/59/10 31/56/10 39/55/10
usemtl Wood_Inside.001
f 40/58/10 42/61/10 39/55/10
f 40/58/10 41/60/10 42/61/10
